# xmcd
#
# Track frame offsets: 
#        150
#        3982
#        7739
#        11197
#        14880
#        18412
#        22320
#        25027
#        28410
#        32393
#        35999
#        39605
#        45611
#        49294
#        52677
#        57635
#        61093
#        64776
#        68757
#        72440
#        76348
#        80031
#        83939
#        87847
#        91305
#        94911
#        99493
#        103099
#        106856
#
# Disc length: 1472 seconds
#
# Revision: 0
# Processed by: cddbd v1.5.2PL0 Copyright (c) Steve Scherf et al.
# Submitted via: ExactAudioCopy v0.99pb5
#
DISCID=7e05be1d
DTITLE=Bob Grant - Fiddle Tunes for Flatpickers (Mandolin)
DYEAR=2006
DGENRE=Bluegrass
TTITLE0=Old Joe Clark
TTITLE1=Old Joe Clark (Alternate B Section)
TTITLE2=Salt Creek
TTITLE3=Sally Goodin'
TTITLE4=Bill Cheatham
TTITLE5=Cherokee Shuffle
TTITLE6=Fire on the Mountain
TTITLE7=Sweet Liza Jame
TTITLE8=Devil's Dream
TTITLE9=Red Haired Bou
TTITLE10=Big Mon
TTITLE11=Old Dangerfield
TTITLE12=Cattle in the Cane
TTITLE13=Cluck Old hen
TTITLE14=Texas Gales
TTITLE15=Billy in the Low Ground
TTITLE16=Boston Boy
TTITLE17=Sailor's Hornpipe
TTITLE18=Whiskey Before Breakfast
TTITLE19=Soldier's Joy
TTITLE20=Eighth of January
TTITLE21=Liberty
TTITLE22=Liberty (Alternate A Section)
TTITLE23=Fisher's Hornpipe
TTITLE24=Arkansas Traveler
TTITLE25=Blackberry Blossom
TTITLE26=Temperance Reel
TTITLE27=Turkey in the Straw
TTITLE28=Kentucky Mandolin
EXTD=
EXTT0=
EXTT1=
EXTT2=
EXTT3=
EXTT4=
EXTT5=
EXTT6=
EXTT7=
EXTT8=
EXTT9=
EXTT10=
EXTT11=
EXTT12=
EXTT13=
EXTT14=
EXTT15=
EXTT16=
EXTT17=
EXTT18=
EXTT19=
EXTT20=
EXTT21=
EXTT22=
EXTT23=
EXTT24=
EXTT25=
EXTT26=
EXTT27=
EXTT28=
PLAYORDER=
